<?xml version="1.0" encoding="UTF-8" standalone="no"?><!DOCTYPE svg PUBLIC "-//W3C//DTD SVG 1.1//EN" "http://www.w3.org/Graphics/SVG/1.1/DTD/svg11.dtd"><svg width="100%" height="100%" viewBox="0 0 1216 193" version="1.1" xmlns="http://www.w3.org/2000/svg" xmlns:xlink="http://www.w3.org/1999/xlink" xml:space="preserve" style="fill-rule:evenodd;clip-rule:evenodd;stroke-linejoin:round;stroke-miterlimit:1.41421;"><g id="Calque-1"><path d="M174.888,151.243c-7.139,0 -12.901,-5.761 -12.901,-12.899c0,-7.138 5.762,-12.9 12.901,-12.9c7.137,0 12.899,5.762 12.899,12.9c0,7.138 -5.762,12.899 -12.899,12.899m12.899,-77.398l16.856,21.5l-38.356,0l0,-21.5l21.5,0Zm-116.098,77.398c-7.138,0 -12.9,-5.761 -12.9,-12.899c0,-7.138 5.762,-12.9 12.9,-12.9c7.138,0 12.9,5.762 12.9,12.9c0,7.138 -5.762,12.899 -12.9,12.899m120.398,-90.298l-25.8,0l0,-34.4l-120.398,0c-9.46,0 -17.2,7.74 -17.2,17.2l0,94.599l17.2,0c0,14.276 11.524,25.799 25.8,25.799c14.276,0 25.799,-11.523 25.799,-25.799l51.6,0c0,14.276 11.523,25.799 25.8,25.799c14.275,0 25.799,-11.523 25.799,-25.799l17.199,0l0,-42.999l-25.799,-34.4Z" style="fill:#4975ba;fill-rule:nonzero;"/><text x="60.942px" y="104.332px" style="font-family:'Phosphate-Inline', 'Phosphate';font-size:87.142px;fill:#fff;">M</text><text x="233.557px" y="147.737px" style="font-family:'Phosphate-Inline', 'Phosphate';font-size:158.257px;fill:#4975ba;">MO<tspan x="464.454px 567.796px " y="147.737px 147.737px ">VI</tspan>NGMA<tspan x="1034.81px 1108.56px " y="147.737px 147.737px ">TE</tspan></text></g></svg>